<?xml version="1.0" encoding="iso-8859-1"?>
<!-- Generator: Adobe Illustrator 19.0.0, SVG Export Plug-In . SVG Version: 6.00 Build 0)  -->
<svg version="1.1"   id="Capa_1" xmlns="http://www.w3.org/2000/svg" xmlns:xlink="http://www.w3.org/1999/xlink" x="0px" y="0px"
	 viewBox="0 0 512 512" style="enable-background:new 0 0 512 512;" xml:space="preserve">
<g>
	<g>
		<path d="M290.133,0H119.467C95.94,0,76.8,19.14,76.8,42.667v307.2c0,23.526,19.14,42.667,42.667,42.667h153.6v-17.067h-153.6
			c-14.114,0-25.6-11.486-25.6-25.6v-307.2c0-14.114,11.486-25.6,25.6-25.6h170.667c14.114,0,25.6,11.486,25.6,25.6v247.467H332.8
			V42.667C332.8,19.14,313.66,0,290.133,0z"/>
	</g>
</g>
<g>
	<g>
		<path d="M414.643,227.294l-83.712-104.619l-13.338,10.667l83.712,104.61c10.863,13.568,16.836,30.618,16.828,48v208.981H293.291
			c-44.083,0-79.957-35.866-79.957-79.957V384h-17.067v30.976c0,53.495,43.529,97.024,97.024,97.024h133.376
			c4.719,0,8.533-3.814,8.533-8.533V285.961C435.209,264.73,427.913,243.891,414.643,227.294z"/>
	</g>
</g>
<g>
	<g>
		<path d="M221.833,201.242c5.99,0.171,11.563,2.662,15.667,7.014l114.68,121.856l12.433-11.699L249.916,196.548
			c-7.245-7.672-17.05-12.066-27.597-12.365c-10.658-0.358-20.582,3.524-28.16,10.684c-0.094,0.094-0.777,0.742-0.862,0.836
			c-14.583,14.626-15.565,37.581-2.261,53.436l73.498,86.784v26.402c-0.009,47.155,29.645,89.933,73.805,106.47l5.99-15.983
			c-37.53-14.054-62.737-50.415-62.729-90.487V332.8c0-2.014-0.717-3.977-2.022-5.521l-75.494-89.148
			c-7.552-8.994-6.997-22.059,1.707-30.771C210.142,203.247,215.825,201.207,221.833,201.242z"/>
	</g>
</g>
<g>
	<g>
		<rect x="264.533" y="17.067" width="17.067" height="213.333"/>
	</g>
</g>
<g>
	<g>
		<rect x="221.867" y="281.6" width="17.067" height="102.4"/>
	</g>
</g>
<g>
	<g>
		<rect x="221.867" y="8.533" width="17.067" height="187.733"/>
	</g>
</g>
<g>
	<g>
		<rect x="119.467" y="42.667" width="17.067" height="110.933"/>
	</g>
</g>
<g>
	<g>
		<rect x="162.133" y="42.667" width="17.067" height="68.267"/>
	</g>
</g>
<g>
	<g>
		<path d="M179.2,281.6H128c-4.71,0-8.533,3.814-8.533,8.533v51.2c0,4.719,3.823,8.533,8.533,8.533h51.2
			c4.71,0,8.533-3.814,8.533-8.533v-51.2C187.733,285.414,183.91,281.6,179.2,281.6z M170.667,332.8h-34.133v-34.133h34.133V332.8z"
			/>
	</g>
</g>
<g>
</g>
<g>
</g>
<g>
</g>
<g>
</g>
<g>
</g>
<g>
</g>
<g>
</g>
<g>
</g>
<g>
</g>
<g>
</g>
<g>
</g>
<g>
</g>
<g>
</g>
<g>
</g>
<g>
</g>
</svg>
